# xmcd
#
# Track frame offsets:
#	150
#	18494
#	39120
#	60884
#	83296
#	102539
#	123481
#	146095
#	167487
#	189871
#	202263
#	225320
#	248196
#	265596
#	283909
#	295914
#
# Disc length: 4231 seconds
#
# Revision: 1
# Processed by: cddbd v1.5PL3 Copyright (c) Steve Scherf et al.
# Submitted via: CDex 1.50Beta5
#
DISCID=d5108510
DTITLE=天童よしみ - 輝き 〜天童ベスト・セレクション〜
DYEAR=1999
DGENRE=Enka
TTITLE0=夢・恋唄
TTITLE1=晴れたら幸せ…
TTITLE2=珍島物語
TTITLE3=人生しみじみ…
TTITLE4=郷愁
TTITLE5=道頓堀人情
TTITLE6=恋鶴
TTITLE7=ある恋の旅路
TTITLE8=川の流れのように
TTITLE9=真赤な太陽
TTITLE10=愛燦燦
TTITLE11=瞼の母
TTITLE12=花と竜
TTITLE13=ソーラン渡り鳥
TTITLE14=大ちゃん数え唄
TTITLE15=女優
EXTD=
EXTT0=
EXTT1=
EXTT2=
EXTT3=
EXTT4=
EXTT5=
EXTT6=
EXTT7=
EXTT8=
EXTT9=
EXTT10=
EXTT11=
EXTT12=
EXTT13=
EXTT14=
EXTT15=
PLAYORDER=
